# xmcd CD database file
#
# Track frame offsets:
#	150
#	15447
#	42514
#	94995
#	119047
#	162875
#
# Disc length: 2555 seconds
#
# Revision: 0
# Processed by: cddbd v1.5.1PL0 Copyright (c) Steve Scherf et al.
# Submitted via: CDex 1.50Beta5
#
DISCID=4909f906
DTITLE=Bobby Jones - Hill Country Suite
DYEAR=1997
DGENRE=Jazz
TTITLE0=Bringin´ in the sheep
TTITLE1=Old Jack Daniels
TTITLE2=Halleluja! Y´uns all come to the weddin´dance
TTITLE3=Only Blue
TTITLE4=Lady Love
TTITLE5=The Gospel Truth
EXTD=YEAR: 1997
EXTT0=
EXTT1=
EXTT2=
EXTT3=
EXTT4=
EXTT5=
PLAYORDER=
